<?xml version="1.0" encoding="utf-8"?>
<!-- Generator: Adobe Illustrator 21.0.0, SVG Export Plug-In . SVG Version: 6.00 Build 0)  -->
<svg version="1.1" id="Layer_1" xmlns="http://www.w3.org/2000/svg" xmlns:xlink="http://www.w3.org/1999/xlink" x="0px" y="0px"
	 viewBox="0 0 150 150" style="enable-background:new 0 0 150 150;" xml:space="preserve">
<style type="text/css">
	.st0{fill-rule:evenodd;clip-rule:evenodd;fill:#FFFFFF;}
</style>
<g id="_x31_0_x2C_000__x20AC_">
	<g>
		<path class="st0" d="M8.2,62.9h5.1v23.7h2V61.2l-7.1,0.2V62.9z M30.1,61c-7,0-9.1,6.3-9.1,13.4c0,7.1,2.1,12.6,8.5,12.6
			c6.3,0,8.9-5.3,8.9-13.4C38.4,67.1,36.9,61,30.1,61z M29.7,85.1c-5.2,0-6.6-5.5-6.6-11c0-5,0.9-11.4,6.8-11.4
			c5.6,0,6.4,6.2,6.4,11C36.3,79.2,35.4,85.1,29.7,85.1z M45.1,87.4c0,1.5-0.6,2.7-0.9,3.6h1.7c0.6-1.3,1.3-2.8,1.3-5.7v-0.9h-2.1
			V87.4z M62.7,61c-7,0-9.1,6.3-9.1,13.4c0,7.1,2.1,12.6,8.5,12.6c6.3,0,8.9-5.3,8.9-13.4C71,67.1,69.5,61,62.7,61z M62.3,85.1
			c-5.2,0-6.6-5.5-6.6-11c0-5,0.9-11.4,6.8-11.4c5.6,0,6.4,6.2,6.4,11C68.9,79.2,68,85.1,62.3,85.1z M84.5,61c-7,0-9.1,6.3-9.1,13.4
			c0,7.1,2.1,12.6,8.5,12.6c6.3,0,8.9-5.3,8.9-13.4C92.8,67.1,91.3,61,84.5,61z M84,85.1c-5.2,0-6.6-5.5-6.6-11
			c0-5,0.9-11.4,6.8-11.4c5.6,0,6.4,6.2,6.4,11C90.7,79.2,89.8,85.1,84,85.1z M106.3,61c-7,0-9.1,6.3-9.1,13.4
			c0,7.1,2.1,12.6,8.5,12.6c6.3,0,8.9-5.3,8.9-13.4C114.6,67.1,113.1,61,106.3,61z M105.8,85.1c-5.2,0-6.6-5.5-6.6-11
			c0-5,0.9-11.4,6.8-11.4c5.6,0,6.4,6.2,6.4,11C112.4,79.2,111.5,85.1,105.8,85.1z M142.1,84.2c-0.5,0.3-2.1,0.8-4.6,0.8
			c-4.9,0-7.4-2.6-8.4-6.8h9.2v-1.9h-9.5c-0.1-0.8-0.1-1.7-0.1-2.6c0-0.8,0-1.5,0.1-2.2h9.5v-1.9h-9.3c0.9-4.5,3.4-6.8,7.7-6.8
			c2.6,0,4.2,0.6,5.2,1l0.7-1.5c-0.9-0.4-2.6-1.2-5.8-1.2c-5.5,0-8.8,3.4-9.9,8.6h-3.1v1.9h2.8c-0.1,0.8-0.1,1.7-0.1,2.5
			c0,0.8,0,1.5,0.1,2.3h-2.7v1.9h3c1,4.9,4,8.6,10,8.6c3.8,0,4.9-0.6,5.9-1L142.1,84.2z"/>
	</g>
</g>
</svg>
