<?xml version="1.0" encoding="utf-8"?>
<!-- Generator: Adobe Illustrator 21.0.0, SVG Export Plug-In . SVG Version: 6.00 Build 0)  -->
<svg version="1.1" id="Layer_1" xmlns="http://www.w3.org/2000/svg" xmlns:xlink="http://www.w3.org/1999/xlink" x="0px" y="0px"
	 viewBox="0 0 150 150" style="enable-background:new 0 0 150 150;" xml:space="preserve">
<style type="text/css">
	.st0{fill:#FFFFFF;}
</style>
<g>
	<path class="st0" d="M76,48c-15.4,0-28,12.6-28,28c0,15.4,12.6,28,28,28s28-12.6,28-28C104,60.6,91.4,48,76,48z M83,63h2v10h-2V63z
		 M67,63h2v10h-2V63z M76,88.2c-11.2,0-15.1-7.1-15.3-7.4l0.9-0.5l0.9-0.5c0.1,0.3,3.6,6.3,13.5,6.3c9.9,0,13.3-6.1,13.5-6.3
		l1.8,0.9C91.1,81.2,87.2,88.2,76,88.2z"/>
	<path class="st0" d="M76,46c-16.6,0-30,13.4-30,30c0,16.6,13.4,30,30,30c16.6,0,30-13.4,30-30C106,59.4,92.6,46,76,46z M76,104
		c-15.4,0-28-12.6-28-28c0-15.4,12.6-28,28-28s28,12.6,28,28C104,91.4,91.4,104,76,104z"/>
	<rect x="67" y="63" class="st0" width="2" height="10"/>
	<rect x="83" y="63" class="st0" width="2" height="10"/>
	<path class="st0" d="M76,86.2c-9.9,0-13.4-6.1-13.5-6.3l-0.9,0.5l-0.9,0.5c0.2,0.3,4.1,7.4,15.3,7.4c11.2,0,15.1-7.1,15.3-7.4
		l-1.8-0.9C89.3,80.2,85.9,86.2,76,86.2z"/>
</g>
</svg>
