<svg id="SvgjsSvg1008" xmlns="http://www.w3.org/2000/svg" version="1.1" xmlns:xlink="http://www.w3.org/1999/xlink" xmlns:svgjs="http://svgjs.com/svgjs" width="29" height="28" viewBox="0 0 29 28"><title>Shape 745</title><desc>Created with Avocode.</desc><defs id="SvgjsDefs1009"></defs><path id="SvgjsPath1010" d="M180.46 6053.3H186.26500000000001V6072H180.46ZM183.363 6044C185.218 6044 186.726 6045.51 186.726 6047.37C186.726 6049.23 185.218 6050.74 183.363 6050.74C181.503 6050.74 179.999 6049.23 179.999 6047.37C179.999 6045.51 181.503 6044 183.363 6044C185.223 6044 183.363 6044 183.363 6044ZM189.905 6053.3H195.471V6055.85H195.55100000000002C196.32600000000002 6054.38 198.21900000000002 6052.83 201.04200000000003 6052.83C206.91400000000004 6052.83 207.99800000000002 6056.71 207.99800000000002 6061.74V6072H202.20200000000003V6062.91C202.20200000000003 6060.74 202.16000000000003 6057.95 199.18600000000004 6057.95C196.16600000000003 6057.95 195.70600000000005 6060.3099999999995 195.70600000000005 6062.75V6072H189.90500000000006Z " fill-opacity="1" transform="matrix(1,0,0,1,-179,-6044)"></path></svg>