<svg id="SvgjsSvg1017" xmlns="http://www.w3.org/2000/svg" version="1.1" xmlns:xlink="http://www.w3.org/1999/xlink" xmlns:svgjs="http://svgjs.com/svgjs" width="28" height="28" viewBox="0 0 28 28"><title>Shape 751</title><desc>Created with Avocode.</desc><defs id="SvgjsDefs1018"></defs><path id="SvgjsPath1019" d="M459.9 6053.1C459.825 6051.43 459.546 6050.530000000001 459.31199999999995 6049.93C459.00299999999993 6049.13 458.633 6048.56 458.03499999999997 6047.96C457.43699999999995 6047.37 456.86899999999997 6047 456.07099999999997 6046.69C455.46999999999997 6046.45 454.566 6046.179999999999 452.90099999999995 6046.099999999999C451.09999999999997 6046.0199999999995 450.55999999999995 6045.999999999999 445.99999999999994 6045.999999999999C441.43999999999994 6045.999999999999 440.8999999999999 6046.0199999999995 439.09899999999993 6046.099999999999C437.43499999999995 6046.179999999999 436.5299999999999 6046.45 435.9289999999999 6046.69C435.1309999999999 6047 434.56299999999993 6047.37 433.9649999999999 6047.96C433.3669999999999 6048.56 432.9969999999999 6049.13 432.68799999999993 6049.93C432.45399999999995 6050.530000000001 432.17599999999993 6051.43 432.0999999999999 6053.1C432.0169999999999 6054.900000000001 431.9999999999999 6055.4400000000005 431.9999999999999 6060C431.9999999999999 6064.56 432.0169999999999 6065.1 432.0999999999999 6066.9C432.17599999999993 6068.5599999999995 432.4539999999999 6069.469999999999 432.68799999999993 6070.07C432.99699999999996 6070.87 433.3669999999999 6071.44 433.9649999999999 6072.03C434.56299999999993 6072.63 435.1309999999999 6073 435.9289999999999 6073.3099999999995C436.5299999999999 6073.549999999999 437.4349999999999 6073.82 439.0999999999999 6073.9C440.8999999999999 6073.98 441.4399999999999 6074 445.9999999999999 6074C450.5599999999999 6074 451.0999999999999 6073.98 452.9009999999999 6073.9C454.5659999999999 6073.82 455.4699999999999 6073.549999999999 456.0709999999999 6073.3099999999995C456.8689999999999 6072.999999999999 457.4369999999999 6072.629999999999 458.0349999999999 6072.03C458.6329999999999 6071.44 459.00299999999993 6070.87 459.3119999999999 6070.07C459.5459999999999 6069.469999999999 459.8249999999999 6068.5599999999995 459.8999999999999 6066.9C459.98299999999995 6065.099999999999 459.99999999999994 6064.5599999999995 459.99999999999994 6060C459.99999999999994 6055.44 459.98299999999995 6054.9 459.8999999999999 6053.1ZM446 6065.69C442.856 6065.69 440.308 6063.139999999999 440.308 6060C440.308 6056.86 442.856 6054.31 446 6054.31C449.144 6054.31 451.692 6056.860000000001 451.692 6060C451.692 6063.14 449.144 6065.69 446 6065.69ZM455.116 6052.93C453.984 6052.93 453.067 6052.02 453.067 6050.88C453.067 6049.75 453.984 6048.84 455.116 6048.84C456.24699999999996 6048.84 457.16499999999996 6049.75 457.16499999999996 6050.88C457.16499999999996 6052.02 456.24699999999996 6052.93 455.116 6052.93Z " fill="#ffffff" fill-opacity="1" transform="matrix(1,0,0,1,-432,-6046)"></path></svg>