<?xml version="1.0" encoding="utf-8"?>
<!-- Generator: Adobe Illustrator 21.0.0, SVG Export Plug-In . SVG Version: 6.00 Build 0)  -->
<svg version="1.1" id="Layer_1" xmlns="http://www.w3.org/2000/svg" xmlns:xlink="http://www.w3.org/1999/xlink" x="0px" y="0px"
	 viewBox="0 0 120 140" style="enable-background:new 0 0 120 140;" xml:space="preserve">
<style type="text/css">
	.st0{fill:url(#SVGID_1_);}
</style>
<linearGradient id="SVGID_1_" gradientUnits="userSpaceOnUse" x1="12" y1="118" x2="108.0002" y2="21.9998">
	<stop  offset="0" style="stop-color:#C3E0D0"/>
	<stop  offset="0.1876" style="stop-color:#C4E0CD"/>
	<stop  offset="0.3383" style="stop-color:#C7E0C3"/>
	<stop  offset="0.4762" style="stop-color:#CDE0B2"/>
	<stop  offset="0.6065" style="stop-color:#D5E19A"/>
	<stop  offset="0.7314" style="stop-color:#DFE17B"/>
	<stop  offset="0.8523" style="stop-color:#ECE156"/>
	<stop  offset="0.9679" style="stop-color:#FAE22A"/>
	<stop  offset="1" style="stop-color:#FFE21C"/>
</linearGradient>
<path class="st0" d="M60,0L0,34v72l60,34l60-34V34L60,0z M60,131.9L25,70L60,8.1L95,70L60,131.9z M97.3,74.1l17.2,30.4l-50.7,28.7
	L97.3,74.1z M56.2,133.2L5.5,104.5l17.2-30.4L56.2,133.2z M56.2,6.8L22.7,65.9L5.5,35.5L56.2,6.8z M63.8,6.8l50.7,28.7L97.3,65.9
	L63.8,6.8z M4,41.1L20.4,70L4,98.9V41.1z M116,98.9L99.6,70L116,41.1V98.9z"/>
</svg>
