<?xml version="1.0" encoding="utf-8"?>
<!-- Generator: Adobe Illustrator 21.0.0, SVG Export Plug-In . SVG Version: 6.00 Build 0)  -->
<svg version="1.1" id="Layer_1" xmlns="http://www.w3.org/2000/svg" xmlns:xlink="http://www.w3.org/1999/xlink" x="0px" y="0px"
	 viewBox="0 0 160 160" style="enable-background:new 0 0 160 160;" xml:space="preserve">
<style type="text/css">
	.st0{fill:none;}
	.st1{fill:#0F8241;}
</style>
<g>
	<polygon class="st0" points="72,58 72,102 101.3,80 	"/>
	<path class="st0" d="M80,4C38.1,4,4,38.1,4,80s34.1,76,76,76s76-34.1,76-76S121.9,4,80,4z M68,110V50l40,30L68,110z"/>
	<path class="st1" d="M80,0C35.8,0,0,35.8,0,80c0,44.2,35.8,80,80,80s80-35.8,80-80C160,35.8,124.2,0,80,0z M80,156
		c-41.9,0-76-34.1-76-76S38.1,4,80,4s76,34.1,76,76S121.9,156,80,156z"/>
	<path class="st1" d="M68,110l40-30L68,50V110z M72,58l29.3,22L72,102V58z"/>
</g>
</svg>
