<svg id="SvgjsSvg1020" xmlns="http://www.w3.org/2000/svg" version="1.1" xmlns:xlink="http://www.w3.org/1999/xlink" xmlns:svgjs="http://svgjs.com/svgjs" width="24" height="24" viewBox="0 0 24 24"><title>Shape 750</title><desc>Created with Avocode.</desc><defs id="SvgjsDefs1021"></defs><path id="SvgjsPath1022" d="M521.292 6065.42C523.109 6065.42 524.5830000000001 6066.89 524.5830000000001 6068.71C524.5830000000001 6070.52 523.109 6072 521.292 6072C519.474 6072 518.001 6070.52 518.001 6068.71C518.001 6066.89 519.4739999999999 6065.42 521.292 6065.42ZM533.907 6072H529.245C529.245 6065.79 524.211 6060.75 518.001 6060.75V6056.09C526.786 6056.09 533.9069999999999 6063.21 533.9069999999999 6072ZM537.198 6072C537.198 6061.39 528.603 6052.8 518.001 6052.8V6048C531.254 6048 541.9979999999999 6058.74 541.9979999999999 6072Z " fill="#ffffff" fill-opacity="1" transform="matrix(1,0,0,1,-518,-6048)"></path></svg>