<svg id="SvgjsSvg1014" xmlns="http://www.w3.org/2000/svg" version="1.1" xmlns:xlink="http://www.w3.org/1999/xlink" xmlns:svgjs="http://svgjs.com/svgjs" width="30" height="24" viewBox="0 0 30 24"><title>Shape 748</title><desc>Created with Avocode.</desc><defs id="SvgjsDefs1015"></defs><path id="SvgjsPath1016" d="M378 6050.84C376.896 6051.32 375.71 6051.650000000001 374.465 6051.79C375.736 6051.04 376.712 6049.86 377.171 6048.44C375.98199999999997 6049.139999999999 374.665 6049.639999999999 373.263 6049.91C372.14 6048.73 370.53999999999996 6048 368.77 6048C365.371 6048 362.615 6050.71 362.615 6054.06C362.615 6054.530000000001 362.67 6055 362.774 6055.4400000000005C357.659 6055.18 353.124 6052.77 350.089 6049.110000000001C349.559 6050.000000000001 349.255 6051.040000000001 349.255 6052.150000000001C349.255 6054.26 350.342 6056.110000000001 351.993 6057.200000000001C350.984 6057.170000000001 350.03499999999997 6056.89 349.206 6056.4400000000005C349.20500000000004 6056.460000000001 349.20500000000004 6056.490000000001 349.20500000000004 6056.51C349.20500000000004 6059.45 351.32700000000006 6061.900000000001 354.14200000000005 6062.46C353.62600000000003 6062.59 353.08200000000005 6062.67 352.5210000000001 6062.67C352.1240000000001 6062.67 351.73800000000006 6062.63 351.36300000000006 6062.56C352.1460000000001 6064.97 354.41900000000004 6066.72 357.1120000000001 6066.77C355.0060000000001 6068.39 352.3520000000001 6069.360000000001 349.4680000000001 6069.360000000001C348.97100000000006 6069.360000000001 348.48100000000005 6069.330000000001 348.00000000000006 6069.280000000001C350.72400000000005 6071.000000000001 353.95900000000006 6072.000000000001 357.43500000000006 6072.000000000001C368.7560000000001 6072.000000000001 374.94700000000006 6062.770000000001 374.94700000000006 6054.760000000001C374.94700000000006 6054.500000000001 374.9410000000001 6054.240000000001 374.9290000000001 6053.980000000001C376.13200000000006 6053.120000000002 377.17500000000007 6052.050000000001 378.0000000000001 6050.840000000001Z " fill-opacity="1" transform="matrix(1,0,0,1,-348,-6048)"></path></svg>