<?xml version="1.0" encoding="utf-8"?>
<!-- Generator: Adobe Illustrator 21.0.0, SVG Export Plug-In . SVG Version: 6.00 Build 0)  -->
<svg version="1.1" id="Layer_1" xmlns="http://www.w3.org/2000/svg" xmlns:xlink="http://www.w3.org/1999/xlink" x="0px" y="0px"
	 viewBox="0 0 150 150" style="enable-background:new 0 0 150 150;" xml:space="preserve">
<style type="text/css">
	.st0{fill:#FFFFFF;}
</style>
<g>
	<path class="st0" d="M54,80.2V76c0-6.4,2.2-10.5,4.8-13H38v26h7.1L54,80.2z"/>
	<path class="st0" d="M114,89V63h-7.1L98,71.8V76c0,6.4-2.2,10.5-4.8,13H114z"/>
	<polygon class="st0" points="29,54 94,54 94,52 27,52 27,100 41,100 41,98 29,98 	"/>
	<polygon class="st0" points="111,52 111,54 123,54 123,98 58,98 58,100 125,100 125,52 	"/>
	<path class="st0" d="M96,76c0,13.1-10,15-10,15h30V61h-10L96,71C96,71,96,74.1,96,76z M98,71.8l8.9-8.8h7.1v26H93.2
		c2.5-2.5,4.8-6.6,4.8-13V71.8z"/>
	<path class="st0" d="M46,91l10-10c0,0,0-3.1,0-5c0-13.1,10-15,10-15H36v30H46z M38,63h20.8c-2.5,2.5-4.8,6.6-4.8,13v4.2L45.1,89H38
		V63z"/>
	<rect x="36.9" y="75" transform="matrix(0.7682 -0.6402 0.6402 0.7682 -31.0391 66.2703)" class="st0" width="78.1" height="2"/>
</g>
</svg>
