<?xml version="1.0" encoding="utf-8"?>
<!-- Generator: Adobe Illustrator 21.0.0, SVG Export Plug-In . SVG Version: 6.00 Build 0)  -->
<svg version="1.1" id="Layer_1" xmlns="http://www.w3.org/2000/svg" xmlns:xlink="http://www.w3.org/1999/xlink" x="0px" y="0px"
	 viewBox="0 0 150 150" style="enable-background:new 0 0 150 150;" xml:space="preserve">
<style type="text/css">
	.st0{fill:#FFFFFF;}
</style>
<g>
	<path class="st0" d="M107.1,84.3l-1.9-3.3l-0.8-1.3l1.1-1.1l2.6-2.7l-2.6-2.7l-1.1-1.1l0.8-1.3l1.9-3.3l-3.2-1.9l-1.3-0.8l0.4-1.5
		l1-3.6l-3.6-1l-1.5-0.4l0-1.5l0-3.8l-3.8,0l-1.5,0l-0.4-1.5l-1-3.6l-3.6,1L87,49.5l-0.8-1.3l-1.9-3.2l-3.3,1.9l-1.3,0.8l-1.1-1.1
		L76,43.8l-2.7,2.6l-1.1,1.1l-1.3-0.8l-3.3-1.9l-1.9,3.2L65,49.5l-1.5-0.4l-3.6-1l-1,3.6l-0.4,1.5l-1.5,0l-3.8,0l0,3.8l0,1.5
		l-1.5,0.4l-3.6,1l1,3.6l0.4,1.5l-1.3,0.8l-3.2,1.9l1.9,3.3l0.8,1.3l-1.1,1.1L43.8,76l2.6,2.7l1.1,1.1l-0.8,1.3l-1.9,3.3l3.2,1.9
		l1.3,0.8l-0.4,1.5l-1,3.6l3.6,1l1.5,0.4l0,1.5l0,3.8l3.8,0l1.5,0l0.4,1.5l1,3.6l3.6-1l1.5-0.4l0.8,1.3l1.9,3.2l3.3-1.9l1.3-0.8
		l1.1,1.1l2.7,2.6l2.7-2.6l1.1-1.1l1.3,0.8l3.3,1.9l1.9-3.2l0.8-1.3l1.5,0.4l3.6,1l1-3.6l0.4-1.5l1.5,0l3.8,0l0-3.8l0-1.5l1.5-0.4
		l3.6-1l-1-3.6l-0.4-1.5l1.3-0.8L107.1,84.3z M74,84.4L63.3,73.7l1.4-1.4l9.3,9.3l14.3-14.3l1.4,1.4L74,84.4z"/>
	<path class="st0" d="M107,80.1l4-4.1l-4-4.1l2.8-5l-5-2.9l1.5-5.5l-5.5-1.5l0-5.7l-5.7,0l-1.5-5.5L88,47.1l-2.9-5l-5,2.8L76,41
		l-4.1,4l-5-2.8l-2.9,5l-5.5-1.5L57,51.2l-5.7,0l0,5.7l-5.5,1.5l1.5,5.5l-5,2.9l2.8,5L41,76l4,4.1l-2.8,5l5,2.9l-1.5,5.5l5.5,1.5
		l0,5.7l5.7,0l1.5,5.5l5.5-1.5l2.9,5l5-2.8l4.1,4l4.1-4l5,2.8l2.9-5l5.5,1.5l1.5-5.5l5.7,0l0-5.7l5.5-1.5l-1.5-5.5l5-2.9L107,80.1z
		 M102.9,88.5l1,3.6l-3.6,1l-1.5,0.4l0,1.5l0,3.8l-3.8,0l-1.5,0l-0.4,1.5l-1,3.6l-3.6-1l-1.5-0.4l-0.8,1.3l-1.9,3.2l-3.3-1.9
		l-1.3-0.8l-1.1,1.1l-2.7,2.6l-2.7-2.6l-1.1-1.1l-1.3,0.8l-3.3,1.9l-1.9-3.2l-0.8-1.3l-1.5,0.4l-3.6,1l-1-3.6l-0.4-1.5l-1.5,0
		l-3.8,0l0-3.8l0-1.5l-1.5-0.4l-3.6-1l1-3.6l0.4-1.5l-1.3-0.8l-3.2-1.9l1.9-3.3l0.8-1.3l-1.1-1.1L43.8,76l2.6-2.7l1.1-1.1l-0.8-1.3
		l-1.9-3.3l3.2-1.9l1.3-0.8l-0.4-1.5l-1-3.6l3.6-1l1.5-0.4l0-1.5l0-3.8l3.8,0l1.5,0l0.4-1.5l1-3.6l3.6,1l1.5,0.4l0.8-1.3l1.9-3.2
		l3.3,1.9l1.3,0.8l1.1-1.1l2.7-2.6l2.7,2.6l1.1,1.1l1.3-0.8l3.3-1.9l1.9,3.2l0.8,1.3l1.5-0.4l3.6-1l1,3.6l0.4,1.5l1.5,0l3.8,0l0,3.8
		l0,1.5l1.5,0.4l3.6,1l-1,3.6l-0.4,1.5l1.3,0.8l3.2,1.9l-1.9,3.3l-0.8,1.3l1.1,1.1l2.6,2.7l-2.6,2.7l-1.1,1.1l0.8,1.3l1.9,3.3
		l-3.2,1.9l-1.3,0.8L102.9,88.5z"/>
	<polygon class="st0" points="74,81.6 64.7,72.3 63.3,73.7 74,84.4 89.7,68.7 88.3,67.3 	"/>
</g>
</svg>
