<svg xmlns="http://www.w3.org/2000/svg" style="display:none"><symbol id="arrow-left" viewbox="0 0 60 160"><style>.st0{fill:#0f8241}</style><path class="st0" d="M48.3 160l3.6-1.8L12.8 80 51.9 1.8 48.3 0l-40 80z"/></symbol><symbol id="arrow-right" viewbox="0 0 60 160"><style>.st0{fill:#0f8241}</style><path class="st0" d="M11.9 160l-3.6-1.8L47.5 80 8.3 1.8 11.9 0l40 80z"/></symbol><symbol id="fb" viewbox="0 0 21 34"><title>Shape 744</title><path d="M13.98 34V18.49h5.897l.883-6.04h-6.78V8.59c0-1.75.551-2.94 3.393-2.94h3.625V.24C20.371.17 18.219 0 15.716 0c-5.227 0-8.805 2.82-8.805 7.99v4.46H.999v6.04h5.912V34z" fill="#fff"/></symbol><symbol id="icon-1_euro" viewbox="0 0 150 150"><style>.st0{fill-rule:evenodd;clip-rule:evenodd;fill:#fff}</style><path class="st0" d="M8.2 62.9h5.1v23.7h2V61.2l-7.1.2v1.5zM30.1 61c-7 0-9.1 6.3-9.1 13.4 0 7.1 2.1 12.6 8.5 12.6 6.3 0 8.9-5.3 8.9-13.4 0-6.5-1.5-12.6-8.3-12.6zm-.4 24.1c-5.2 0-6.6-5.5-6.6-11 0-5 .9-11.4 6.8-11.4 5.6 0 6.4 6.2 6.4 11 0 5.5-.9 11.4-6.6 11.4zm15.4 2.3c0 1.5-.6 2.7-.9 3.6h1.7c.6-1.3 1.3-2.8 1.3-5.7v-.9h-2.1v3zM62.7 61c-7 0-9.1 6.3-9.1 13.4 0 7.1 2.1 12.6 8.5 12.6 6.3 0 8.9-5.3 8.9-13.4 0-6.5-1.5-12.6-8.3-12.6zm-.4 24.1c-5.2 0-6.6-5.5-6.6-11 0-5 .9-11.4 6.8-11.4 5.6 0 6.4 6.2 6.4 11 0 5.5-.9 11.4-6.6 11.4zM84.5 61c-7 0-9.1 6.3-9.1 13.4 0 7.1 2.1 12.6 8.5 12.6 6.3 0 8.9-5.3 8.9-13.4 0-6.5-1.5-12.6-8.3-12.6zM84 85.1c-5.2 0-6.6-5.5-6.6-11 0-5 .9-11.4 6.8-11.4 5.6 0 6.4 6.2 6.4 11 .1 5.5-.8 11.4-6.6 11.4zM106.3 61c-7 0-9.1 6.3-9.1 13.4 0 7.1 2.1 12.6 8.5 12.6 6.3 0 8.9-5.3 8.9-13.4 0-6.5-1.5-12.6-8.3-12.6zm-.5 24.1c-5.2 0-6.6-5.5-6.6-11 0-5 .9-11.4 6.8-11.4 5.6 0 6.4 6.2 6.4 11 0 5.5-.9 11.4-6.6 11.4zm36.3-.9c-.5.3-2.1.8-4.6.8-4.9 0-7.4-2.6-8.4-6.8h9.2v-1.9h-9.5c-.1-.8-.1-1.7-.1-2.6 0-.8 0-1.5.1-2.2h9.5v-1.9H129c.9-4.5 3.4-6.8 7.7-6.8 2.6 0 4.2.6 5.2 1l.7-1.5c-.9-.4-2.6-1.2-5.8-1.2-5.5 0-8.8 3.4-9.9 8.6h-3.1v1.9h2.8c-.1.8-.1 1.7-.1 2.5s0 1.5.1 2.3h-2.7v1.9h3c1 4.9 4 8.6 10 8.6 3.8 0 4.9-.6 5.9-1l-.7-1.7z" id="_x31_0_x2C_000__x20AC_"/></symbol><symbol id="icon-2_money" viewbox="0 0 150 150"><style>.st0{fill:#fff}</style><path class="st0" d="M54 80.2V76c0-6.4 2.2-10.5 4.8-13H38v26h7.1l8.9-8.8zM114 89V63h-7.1L98 71.8V76c0 6.4-2.2 10.5-4.8 13H114z"/><path class="st0" d="M29 54h65v-2H27v48h14v-2H29zM111 52v2h12v44H58v2h67V52z"/><path class="st0" d="M96 76c0 13.1-10 15-10 15h30V61h-10L96 71v5zm2-4.2l8.9-8.8h7.1v26H93.2c2.5-2.5 4.8-6.6 4.8-13v-4.2zM46 91l10-10v-5c0-13.1 10-15 10-15H36v30h10zm-8-28h20.8c-2.5 2.5-4.8 6.6-4.8 13v4.2L45.1 89H38V63z"/><path transform="rotate(-39.807 75.997 76)" class="st0" d="M36.9 75H115v2H36.9z"/></symbol><symbol id="icon-3_smile" viewbox="0 0 150 150"><style>.st0{fill:#fff}</style><path class="st0" d="M76 48c-15.4 0-28 12.6-28 28s12.6 28 28 28 28-12.6 28-28-12.6-28-28-28zm7 15h2v10h-2V63zm-16 0h2v10h-2V63zm9 25.2c-11.2 0-15.1-7.1-15.3-7.4l.9-.5.9-.5c.1.3 3.6 6.3 13.5 6.3s13.3-6.1 13.5-6.3l1.8.9c-.2.5-4.1 7.5-15.3 7.5z"/><path class="st0" d="M76 46c-16.6 0-30 13.4-30 30s13.4 30 30 30 30-13.4 30-30-13.4-30-30-30zm0 58c-15.4 0-28-12.6-28-28s12.6-28 28-28 28 12.6 28 28-12.6 28-28 28z"/><path class="st0" d="M67 63h2v10h-2zM83 63h2v10h-2zM76 86.2c-9.9 0-13.4-6.1-13.5-6.3l-.9.5-.9.5c.2.3 4.1 7.4 15.3 7.4 11.2 0 15.1-7.1 15.3-7.4l-1.8-.9c-.2.2-3.6 6.2-13.5 6.2z"/></symbol><symbol id="icon-4_check" viewbox="0 0 150 150"><style>.st0{fill:#fff}</style><path class="st0" d="M107.1 84.3l-1.9-3.3-.8-1.3 1.1-1.1 2.6-2.7-2.6-2.7-1.1-1.1.8-1.3 1.9-3.3-3.2-1.9-1.3-.8.4-1.5 1-3.6-3.6-1-1.5-.4V53h-5.3l-.4-1.5-1-3.6-3.6 1-1.6.6-.8-1.3-1.9-3.2-3.3 1.9-1.3.8-1.1-1.1-2.6-2.8-2.7 2.6-1.1 1.1-1.3-.8-3.3-1.9-1.9 3.2-.7 1.5-1.5-.4-3.6-1-1 3.6-.4 1.5h-5.3v5.3l-1.5.4-3.6 1 1 3.6.4 1.5-1.3.8-3.2 1.9 1.9 3.3.8 1.3-1.1 1.1-2.8 2.6 2.6 2.7 1.1 1.1-.8 1.3-1.9 3.3 3.2 1.9 1.3.8-.4 1.5-1 3.6 3.6 1 1.5.4v5.3h5.3l.4 1.5 1 3.6 3.6-1 1.5-.4.8 1.3 1.9 3.2 3.3-1.9 1.3-.8 1.1 1.1 2.7 2.6 2.7-2.6 1.1-1.1 1.3.8 3.3 1.9 1.9-3.2.8-1.3 1.5.4 3.6 1 1-3.6.4-1.5h5.3v-5.3l1.5-.4 3.6-1-1-3.6-.4-1.5 1.3-.8 3.3-2zm-33.1.1L63.3 73.7l1.4-1.4 9.3 9.3 14.3-14.3 1.4 1.4L74 84.4z"/><path class="st0" d="M107 80.1l4-4.1-4-4.1 2.8-5-5-2.9 1.5-5.5-5.5-1.5v-5.7h-5.7l-1.5-5.5-5.6 1.3-2.9-5-5 2.8L76 41l-4.1 4-5-2.8-2.9 5-5.5-1.5-1.5 5.5h-5.7v5.7l-5.5 1.5 1.5 5.5-5 2.9 2.8 5L41 76l4 4.1-2.8 5 5 2.9-1.5 5.5 5.5 1.5v5.7h5.7l1.5 5.5 5.5-1.5 2.9 5 5-2.8 4.1 4 4.1-4 5 2.8 2.9-5 5.5 1.5 1.5-5.5h5.7V95l5.5-1.5-1.5-5.5 5-2.9-2.6-5zm-4.1 8.4l1 3.6-3.6 1-1.5.4v5.3h-5.3l-.4 1.5-1 3.6-3.6-1-1.5-.4-.8 1.3-1.9 3.2-3.3-1.9-1.3-.8-1.1 1.1-2.7 2.6-2.7-2.6-1.1-1.1-1.3.8-3.3 1.9-1.9-3.2-.8-1.3-1.5.4-3.6 1-1-3.6-.4-1.5H53v-5.3l-1.5-.4-3.6-1 1-3.6.4-1.5-1.3-.8-3.2-1.9 1.9-3.3.8-1.3-1.1-1.1-2.6-2.6 2.6-2.7 1.1-1.1-.8-1.3-1.9-3.3 3.2-1.9 1.3-.8-.4-1.5-1-3.6 3.6-1 1.5-.4v-5.3h5.3l.4-1.5 1-3.6 3.6 1 1.5.4.8-1.3 1.9-3.2 3.3 1.9 1.3.8 1.1-1.1 2.7-2.6 2.7 2.6 1.1 1.1 1.3-.8 3.3-1.9 1.9 3.2.8 1.3 1.5-.4 3.6-1 1 3.6.4 1.5h5.3v5.3l1.5.4 3.6 1-1 3.6-.4 1.5 1.3.8 3.2 1.9-1.9 3.3-.8 1.3 1.1 1.1L108 76l-2.6 2.7-1.1 1.1.8 1.3 1.9 3.3-3.2 1.9-1.3.8.4 1.4z"/><path class="st0" d="M74 81.6l-9.3-9.3-1.4 1.4L74 84.4l15.7-15.7-1.4-1.4z"/></symbol><symbol id="icon-5_updown" viewbox="0 0 150 150"><style>.st0{fill:#fff}</style><path class="st0" d="M46 98.4V66h2v27.6l48.3-48.3 1.4 1.4zM55.7 106.7l-1.4-1.4L106 53.6V86h-2V58.4z"/></symbol><symbol id="in" viewbox="0 0 29 28"><title>Shape 745</title><path d="M1.46 9.3h5.805V28H1.46zM4.363 0a3.369 3.369 0 0 1 3.363 3.37c0 1.86-1.508 3.37-3.363 3.37A3.366 3.366 0 0 1 .999 3.37C.999 1.51 2.503 0 4.363 0c1.86 0 0 0 0 0zm6.542 9.3h5.566v2.55h.08c.775-1.47 2.668-3.02 5.491-3.02 5.872 0 6.956 3.88 6.956 8.91V28h-5.796v-9.09c0-2.17-.042-4.96-3.016-4.96-3.02 0-3.48 2.36-3.48 4.8V28h-5.801z" fill="#fff"/></symbol><symbol id="inst" viewbox="0 0 28 28"><title>Shape 751</title><path d="M27.9 7.1c-.075-1.67-.354-2.57-.588-3.17a5.296 5.296 0 0 0-1.277-1.97A5.37 5.37 0 0 0 24.071.69C23.47.45 22.566.18 20.901.1 19.1.02 18.56 0 14 0S8.9.02 7.099.1C5.435.18 4.53.45 3.929.69a5.37 5.37 0 0 0-1.964 1.27c-.598.6-.968 1.17-1.277 1.97C.454 4.53.176 5.43.1 7.1.017 8.9 0 9.44 0 14c0 4.56.017 5.1.1 6.9.076 1.66.354 2.57.588 3.17.309.8.679 1.37 1.277 1.96.598.6 1.166.97 1.964 1.28.601.24 1.506.51 3.171.59 1.8.08 2.34.1 6.9.1 4.56 0 5.1-.02 6.901-.1 1.665-.08 2.569-.35 3.17-.59a5.268 5.268 0 0 0 1.964-1.28c.598-.59.968-1.16 1.277-1.96.234-.6.513-1.51.588-3.17.083-1.8.1-2.34.1-6.9 0-4.56-.017-5.1-.1-6.9zM14 19.69A5.692 5.692 0 0 1 8.308 14a5.692 5.692 0 0 1 11.384 0c0 3.14-2.548 5.69-5.692 5.69zm9.116-12.76a2.044 2.044 0 1 1 0-4.09 2.045 2.045 0 1 1 0 4.09z" fill="#fff"/></symbol><symbol id="loupe" viewbox="0 0 512 512"><path d="M264.828 264.527c-2.919.192-5.86.3-8.828.3-2.967 0-5.909-.108-8.828-.3v35.611h17.655v-35.611z" fill="#464655"/><path d="M264.828 264.527c69.013-4.544 123.586-61.951 123.586-132.114C388.414 59.284 329.13 0 256 0S123.586 59.284 123.586 132.414c0 70.163 54.573 127.57 123.586 132.114 2.919.192 5.86.3 8.828.3 2.967 0 5.909-.109 8.828-.301zm-105.352-88.413c-.061-.134-.118-.267-.179-.401a105.108 105.108 0 0 1-5.64-15.889 105.476 105.476 0 0 1-3.259-19.022 107.1 107.1 0 0 1-.296-11.122c1.427-56.332 46.83-101.736 103.162-103.162.909-.023 1.821-.034 2.734-.034 58.504 0 105.931 47.427 105.931 105.931S314.504 238.345 256 238.345a106.47 106.47 0 0 1-16.132-1.22 106.156 106.156 0 0 1-5.777-1.053 105.119 105.119 0 0 1-20.653-6.631 105.323 105.323 0 0 1-7.694-3.754c-.237-.128-.473-.259-.71-.39a103.375 103.375 0 0 1-4.827-2.826 106.136 106.136 0 0 1-6.077-4.067c-14.941-10.771-26.966-25.337-34.654-42.29z" fill="#707384"/><g fill="#b9ebff"><path d="M234.091 236.071zM211.317 228.479zM223.31 233.196zM239.868 237.124zM150.399 140.802zM205.035 225.295zM159.476 176.114c7.688 16.953 19.713 31.519 34.656 42.29-14.943-10.771-26.968-25.337-34.656-42.29zM185.379 132.414c0 52.474 38.195 95.922 88.276 104.343-5.753.968-11.626 1.588-17.655 1.588 58.504 0 105.931-47.427 105.931-105.931S314.504 26.483 256 26.483c6.029 0 11.902.621 17.655 1.588-50.081 8.421-88.276 51.867-88.276 104.343zM317.793 92.69c0 17.064-13.833 30.897-30.897 30.897s-30.897-13.833-30.897-30.897 13.833-30.897 30.897-30.897 30.897 13.833 30.897 30.897zM200.209 222.471zM153.657 159.825zM159.297 175.713z"/></g><path d="M200.209 222.471a104.207 104.207 0 0 0 4.827 2.826l.71.39a106.878 106.878 0 0 0 7.694 3.754 105.11 105.11 0 0 0 21.711 6.848c1.561.312 3.134.594 4.719.836a106.656 106.656 0 0 0 16.13 1.219c6.029 0 11.902-.621 17.655-1.588-50.081-8.422-88.276-51.868-88.276-104.343s38.195-95.922 88.276-104.343c-5.753-.967-11.626-1.588-17.655-1.588-.914 0-1.825.011-2.734.034-56.332 1.427-101.736 46.83-103.162 103.162a108.125 108.125 0 0 0 .296 11.122 105.416 105.416 0 0 0 3.991 21.624 105.263 105.263 0 0 0 4.908 13.287c.06.134.118.267.179.401 7.688 16.953 19.713 31.519 34.656 42.29.449.323.902.642 1.355.959a104.397 104.397 0 0 0 4.72 3.11z" fill="#98d2eb"/><circle cx="286.897" cy="92.69" r="30.897" fill="#fff"/><g fill="#707384"><path d="M229.876 497.903zM230.1 313.365zM247.172 512zM241.329 301.149zM229.876 497.903c1.411 6.895 6.842 12.328 13.738 13.738a17.675 17.675 0 0 1-13.738-13.738zM256 317.793v176.552c0 8.217 5.64 15.062 13.241 17.031a19.256 19.256 0 0 1-3.101.558c9.135-.674 16.342-8.281 16.342-17.589V317.793c0-9.306-7.207-16.914-16.341-17.589 1.062.097 2.092.297 3.1.558-7.601 1.969-13.241 8.814-13.241 17.031zM243.614 300.497z"/></g><path d="M247.172 300.138c-1.218 0-2.409.124-3.559.359a17.61 17.61 0 0 0-2.285.652 17.677 17.677 0 0 0-10.901 11.075c-.125.374-.228.756-.328 1.14a17.639 17.639 0 0 0-.583 4.429v176.552c0 1.219.124 2.409.359 3.559 1.411 6.895 6.842 12.328 13.738 13.738 1.15.235 2.339.359 3.559.359h17.655c.444 0 .881-.026 1.313-.066a19.407 19.407 0 0 0 3.101-.558c-7.601-1.97-13.241-8.815-13.241-17.032V317.793c0-8.217 5.64-15.062 13.241-17.031a19.244 19.244 0 0 0-3.1-.558c-.433-.04-.87-.066-1.314-.066h-17.655z" fill="#5b5c6c"/></symbol><symbol id="markets-1" viewbox="0 0 120 140"><style>.st0{fill:url(#SVGID_1_)}</style><lineargradient id="SVGID_1_" gradientunits="userSpaceOnUse" x1="11.998" y1="117.999" x2="108" y2="21.997"><stop offset="0" stop-color="#c3e0d0"/><stop offset=".194" stop-color="#c0e1ce"/><stop offset=".349" stop-color="#b6e2ca"/><stop offset=".491" stop-color="#a5e6c1"/><stop offset=".626" stop-color="#8deab6"/><stop offset=".754" stop-color="#6ef0a6"/><stop offset=".877" stop-color="#49f794"/><stop offset=".997" stop-color="#1dff7f"/><stop offset="1" stop-color="#1cff7e"/></lineargradient><path class="st0" d="M60 0L0 34v72l60 34 60-34V34L60 0zm4 70l52-30.5v61L64 70zM60 4.6l54.7 31L4 100.5V36.3L60 4.6zM5.3 104.4L60 72.3l54.7 32.1-54.7 31-54.7-31z"/></symbol><symbol id="markets-2" viewbox="0 0 120 140"><style>.st0{fill:url(#SVGID_1_)}.st1{fill:url(#SVGID_2_)}</style><lineargradient id="SVGID_1_" gradientunits="userSpaceOnUse" x1="58.483" y1="5.455" x2="58.494" y2="5.455"><stop offset="0" stop-color="#c3e0d0"/><stop offset="1" stop-color="#1cff7e"/></lineargradient><path class="st0" d="M58.5 5.5z"/><lineargradient id="SVGID_2_" gradientunits="userSpaceOnUse" x1="12" y1="117.999" x2="108.003" y2="21.997"><stop offset="0" stop-color="#c3e0d0"/><stop offset=".193" stop-color="#c0dfd1"/><stop offset=".348" stop-color="#b6ded4"/><stop offset=".49" stop-color="#a5dbd8"/><stop offset=".625" stop-color="#8dd6df"/><stop offset=".753" stop-color="#6ed1e8"/><stop offset=".876" stop-color="#49caf2"/><stop offset=".995" stop-color="#1dc2ff"/><stop offset=".999" stop-color="#1cc2ff"/></lineargradient><path class="st1" d="M60 0L0 34v72l60 34 60-34V34L60 0zm56 101.9L63.8 6.7 116 36.3v65.6zM58.5 5.5zm3.5 6.3l51.3 93.4-51.3 29V11.8zm-4 116.4L6.7 34.8 58 5.7v122.5zm-54-90l52.2 95.1L4 103.7V38.2z"/></symbol><symbol id="markets-3" viewbox="0 0 120 140"><style>.st0{fill:url(#SVGID_1_)}.st1{fill:url(#SVGID_2_)}</style><lineargradient id="SVGID_1_" gradientunits="userSpaceOnUse" x1="58.483" y1="5.455" x2="58.494" y2="5.455"><stop offset="0" stop-color="#c3e0d0"/><stop offset="1" stop-color="#1cff7e"/></lineargradient><path class="st0" d="M58.5 5.5z"/><lineargradient id="SVGID_2_" gradientunits="userSpaceOnUse" x1="12" y1="117.999" x2="108.002" y2="21.997"><stop offset="0" stop-color="#c3e0d0"/><stop offset=".181" stop-color="#c4ddd1"/><stop offset=".327" stop-color="#c6d3d3"/><stop offset=".46" stop-color="#cac2d7"/><stop offset=".586" stop-color="#cfaadd"/><stop offset=".706" stop-color="#d68be4"/><stop offset=".823" stop-color="#df65ed"/><stop offset=".934" stop-color="#e93af8"/><stop offset="1" stop-color="#f01cff"/></lineargradient><path class="st1" d="M60 0L0 34v72l60 34 60-34V34L60 0zm46.1 70L4 100.6V39.4L106.1 70zm9.9 33.7l-56 31.7-54.7-31L116 71.2v32.5zM5.3 35.6L60 4.6l56 31.7v32.5L5.3 35.6z"/></symbol><symbol id="markets-4" viewbox="0 0 120 140"><style>.st0{fill:url(#SVGID_1_)}.st1{fill:url(#SVGID_2_)}.st2{fill:url(#SVGID_3_)}</style><lineargradient id="SVGID_1_" gradientunits="userSpaceOnUse" x1="12" y1="117.999" x2="108.002" y2="21.997"><stop offset="0" stop-color="#c3e0d0"/><stop offset=".181" stop-color="#c4ddce"/><stop offset=".327" stop-color="#c7d3c7"/><stop offset=".46" stop-color="#ccc2bc"/><stop offset=".586" stop-color="#d4aaad"/><stop offset=".706" stop-color="#dd8b99"/><stop offset=".823" stop-color="#e96581"/><stop offset=".934" stop-color="#f63a64"/><stop offset="1" stop-color="#ff1c51"/></lineargradient><path class="st0" d="M60 0L0 34v72l60 34 60-34V34L60 0zm56 103.7l-56 31.7-56-31.7V36.3L60 4.6l56 31.7v67.4z"/><lineargradient id="SVGID_2_" gradientunits="userSpaceOnUse" x1="28.172" y1="101.828" x2="91.831" y2="38.169"><stop offset="0" stop-color="#c3e0d0"/><stop offset=".181" stop-color="#c4ddce"/><stop offset=".327" stop-color="#c7d3c7"/><stop offset=".46" stop-color="#ccc2bc"/><stop offset=".586" stop-color="#d4aaad"/><stop offset=".706" stop-color="#dd8b99"/><stop offset=".823" stop-color="#e96581"/><stop offset=".934" stop-color="#f63a64"/><stop offset="1" stop-color="#ff1c51"/></lineargradient><path class="st1" d="M20 46.3v47.3L60 116l40-22.3V46.3L60 24 20 46.3zm76 45l-36 20.1-36-20.1V48.7l36-20.1 36 20.1v42.6z"/><lineargradient id="SVGID_3_" gradientunits="userSpaceOnUse" x1="44.344" y1="85.656" x2="75.658" y2="54.342"><stop offset="0" stop-color="#c3e0d0"/><stop offset=".181" stop-color="#c4ddce"/><stop offset=".327" stop-color="#c7d3c7"/><stop offset=".46" stop-color="#ccc2bc"/><stop offset=".586" stop-color="#d4aaad"/><stop offset=".706" stop-color="#dd8b99"/><stop offset=".823" stop-color="#e96581"/><stop offset=".934" stop-color="#f63a64"/><stop offset="1" stop-color="#ff1c51"/></lineargradient><path class="st2" d="M40 58.7v22.6L60 92l20-10.7V58.7L60 48 40 58.7zm36 20.2l-16 8.5-16-8.5V61.1l16-8.5 16 8.5v17.8z"/></symbol><symbol id="markets-5" viewbox="0 0 120 140"><style>.st0{fill:url(#SVGID_1_)}</style><lineargradient id="SVGID_1_" gradientunits="userSpaceOnUse" x1="12" y1="118" x2="108" y2="22"><stop offset="0" stop-color="#c3e0d0"/><stop offset=".188" stop-color="#c4e0cd"/><stop offset=".338" stop-color="#c7e0c3"/><stop offset=".476" stop-color="#cde0b2"/><stop offset=".607" stop-color="#d5e19a"/><stop offset=".731" stop-color="#dfe17b"/><stop offset=".852" stop-color="#ece156"/><stop offset=".968" stop-color="#fae22a"/><stop offset="1" stop-color="#ffe21c"/></lineargradient><path class="st0" d="M60 0L0 34v72l60 34 60-34V34L60 0zm0 131.9L25 70 60 8.1 95 70l-35 61.9zm37.3-57.8l17.2 30.4-50.7 28.7 33.5-59.1zm-41.1 59.1L5.5 104.5l17.2-30.4 33.5 59.1zm0-126.4L22.7 65.9 5.5 35.5 56.2 6.8zm7.6 0l50.7 28.7-17.2 30.4L63.8 6.8zM4 41.1L20.4 70 4 98.9V41.1zm112 57.8L99.6 70 116 41.1v57.8z"/></symbol><symbol id="markets-6" viewbox="0 0 120 140"><style>.st0{fill:url(#SVGID_1_)}</style><lineargradient id="SVGID_1_" gradientunits="userSpaceOnUse" x1="12" y1="118" x2="108" y2="22"><stop offset="0" stop-color="#c3e0d0"/><stop offset=".188" stop-color="#c3e1cd"/><stop offset=".338" stop-color="#c1e2c3"/><stop offset=".476" stop-color="#bfe5b2"/><stop offset=".607" stop-color="#bce99a"/><stop offset=".731" stop-color="#b8ef7b"/><stop offset=".852" stop-color="#b3f556"/><stop offset=".968" stop-color="#aefd2a"/><stop offset="1" stop-color="#acff1c"/></lineargradient><path class="st0" d="M60 0L0 34v72l60 34 60-34V34L60 0zm0 8.1l53.1 93.9H6.9L60 8.1zM4 36.3L56.2 6.8 4 98.9V36.3zm56 99.1L8.1 106h103.8L60 135.4zM63.8 6.8L116 36.3v62.6L63.8 6.8z"/></symbol><symbol id="plane" viewbox="0 0 20 30"><style>.st0,.st1{fill-rule:evenodd;clip-rule:evenodd;fill:#87c0a0}.st1{fill:#118242}</style><path class="st0" d="M0 30L7 0v23zM20 20L7 0l5 18z"/><path class="st1" d="M15.1 25.9L7 0v23z"/></symbol><symbol id="play" viewbox="0 0 160 160"><style>.st0{fill:none}.st1{fill:#0f8241}</style><path class="st0" d="M72 58v44l29.3-22z"/><path class="st0" d="M80 4C38.1 4 4 38.1 4 80s34.1 76 76 76 76-34.1 76-76S121.9 4 80 4zM68 110V50l40 30-40 30z"/><path class="st1" d="M80 0C35.8 0 0 35.8 0 80s35.8 80 80 80 80-35.8 80-80S124.2 0 80 0zm0 156c-41.9 0-76-34.1-76-76S38.1 4 80 4s76 34.1 76 76-34.1 76-76 76z"/><path class="st1" d="M68 110l40-30-40-30v60zm4-52l29.3 22L72 102V58z"/></symbol><symbol id="rgb" viewbox="0 0 512 512"><path d="M196.862 196.758a158.294 158.294 0 0 1-1.495-9.816c-.039-.32-.073-.641-.11-.961a163.147 163.147 0 0 1-.47-4.72 164.075 164.075 0 0 1-.228-3.081c-.032-.491-.066-.982-.094-1.475a162.853 162.853 0 0 1-.14-3.142c-.017-.454-.039-.905-.052-1.359a162.708 162.708 0 0 1-.066-4.48c0-1.498.025-2.991.066-4.48.012-.455.035-.907.052-1.361.038-1.049.082-2.097.14-3.14.028-.493.062-.984.094-1.476a163.24 163.24 0 0 1 .347-4.427c.105-1.127.223-2.25.351-3.37.038-.321.072-.643.11-.964C200.585 105.233 223.192 67.32 256 41.953c-26.854-20.762-60.533-33.126-97.103-33.126C71.14 8.828 0 79.968 0 167.724c0 66.854 41.291 124.057 99.758 147.518 9.981-54.048 47.311-98.504 97.104-118.484z" fill="#ff5050"/><g fill="#5050ff"><path d="M512 167.724C512 79.968 440.86 8.828 353.103 8.828c-36.57 0-70.25 12.363-97.103 33.126-32.808 25.367-55.415 63.279-60.632 106.551 5.234-43.206 27.878-80.996 60.632-106.361 37.532 29.064 61.793 74.438 61.793 125.581 0 9.92-.924 19.619-2.669 29.028 49.801 19.978 87.135 64.436 97.117 118.489C470.709 291.782 512 234.578 512 167.724zM194.465 176.705zM194.786 181.261zM194.273 172.204zM195.257 185.981zM196.862 196.758c.004-.002.009-.003.013-.006-.6-3.238-1.109-6.507-1.508-9.811.398 3.306.898 6.578 1.495 9.817zM194.325 161.885zM194.558 157.267zM194.906 152.84zM194.207 167.724z"/></g><path d="M315.124 196.753l-.002.011c49.727 19.979 86.983 64.409 96.992 118.409-18.259 7.316-38.137 11.448-59.01 11.448-36.593 0-70.269-12.381-97.103-33.176-26.835 20.796-60.511 33.176-97.103 33.176-20.873 0-40.751-4.132-59.01-11.448 10.009-53.999 47.265-98.43 96.992-118.409l-.001-.008c-.006-.002-.01 0-.014.001-49.794 19.98-87.123 64.436-97.103 118.484a159.737 159.737 0 0 0-2.656 29.035c0 87.756 71.14 158.897 158.897 158.897S414.9 432.033 414.9 344.276c0-9.918-.917-19.619-2.655-29.034-9.985-54.054-47.32-98.512-97.121-118.489z" fill="#78ff78"/><path d="M194.906 152.84a155.847 155.847 0 0 0-.347 4.427c-.032.492-.066.983-.094 1.476a163.364 163.364 0 0 0-.14 3.14c-.017.454-.039.906-.052 1.361-.041 1.489-.066 2.982-.066 4.48s.025 2.991.066 4.48c.012.455.035.906.052 1.359.038 1.049.082 2.098.14 3.142.028.493.062.983.094 1.475a164.075 164.075 0 0 0 .347 4.428c.105 1.128.222 2.252.351 3.373.036.321.071.642.11.961a158.918 158.918 0 0 0 1.51 9.822c15.966-6.414 33.217-10.308 51.265-11.188l.099-.006c1.13-.054 2.264-.095 3.401-.126l.024-.001c.142-.003.284-.012.426-.015l.075-.001c1.273-.03 2.55-.047 3.831-.047s2.558.018 3.831.047c.175.004.35.013.525.018 1.137.031 2.271.072 3.401.126l.099.006c18.049.879 35.299 4.774 51.265 11.188l.001-.008a158.964 158.964 0 0 0 2.67-29.033c0-51.143-24.262-96.518-61.793-125.581-32.756 25.365-55.4 63.156-60.632 106.361-.039.321-.074.643-.11.964a171.035 171.035 0 0 0-.349 3.372z" fill="#ff78ff"/><g fill="#a0ffff"><path d="M252.169 185.427l-.075.001.071-.001h.004zM256 185.379zM263.857 185.576c18.009.898 35.2 4.86 51.154 11.251a158.034 158.034 0 0 1-1.164 5.656 157.334 157.334 0 0 1-2.52 9.795c-9.508 32.61-29.161 60.892-55.327 81.169 26.836 20.796 60.512 33.176 97.105 33.176 20.873 0 40.751-4.132 59.01-11.448-10.009-53.999-47.265-98.43-96.992-118.409-15.967-6.417-33.217-10.311-51.266-11.19zM248.22 185.571l.023-.001-.099.006.023-.001.053-.004zM260.356 185.444zM251.668 185.443l-.024.001h.001l.023-.001z"/></g><g fill="#ffff50"><path d="M311.327 212.276a158.451 158.451 0 0 1-8.999 23.617c-.087.182-.169.366-.256.548a158.37 158.37 0 0 1-6.048 11.366c-.313.532-.65 1.049-.969 1.578-1.707 2.846-3.526 5.615-5.402 8.342-.701 1.013-1.384 2.039-2.108 3.034a159.443 159.443 0 0 1-6.35 8.188c-1.221 1.471-2.5 2.892-3.774 4.318a160.794 160.794 0 0 1-20.664 19.417c-.258.203-.521.401-.78.601-30.205-23.401-51.785-57.375-59.06-96.408 15.977-6.421 33.198-10.403 51.251-11.303l-.023.001c-18.049.879-35.299 4.774-51.265 11.188-49.727 19.979-86.983 64.409-96.992 118.409 18.258 7.316 38.136 11.448 59.009 11.448 36.593 0 70.269-12.381 97.103-33.176 26.166-20.277 45.817-48.558 55.327-81.168zM256 185.379c-1.281 0-2.558.018-3.831.047h-.006c1.276-.03 2.555-.047 3.837-.047zM313.846 202.482zM251.645 185.444c-.001 0-.001 0 0 0a166.21 166.21 0 0 0-3.402.126l-.023.001c1.137-.056 2.28-.095 3.425-.127zM315.01 196.828z"/></g><path d="M248.22 185.571l-.053.003c-18.052.899-35.273 4.882-51.251 11.303 7.275 39.034 28.856 73.009 59.06 96.408.259-.202.522-.398.78-.601a161.005 161.005 0 0 0 20.664-19.417c1.273-1.426 2.552-2.847 3.774-4.318 2.2-2.66 4.324-5.386 6.35-8.188.724-.995 1.406-2.022 2.108-3.034 1.877-2.727 3.694-5.496 5.402-8.342.319-.529.657-1.045.969-1.578a158.772 158.772 0 0 0 6.048-11.366c.087-.182.17-.366.256-.548a158.755 158.755 0 0 0 8.999-23.617l.163-.561a157.536 157.536 0 0 0 2.593-10.308c.329-1.519.643-3.046.928-4.582-15.954-6.391-33.144-10.353-51.154-11.251l-.099-.006c-1.13-.055-2.264-.095-3.401-.126-.175-.004-.35-.013-.525-.018a157.355 157.355 0 0 0-7.739.001c-.142.003-.284.012-.426.015l-.023.001c-1.143.035-2.286.074-3.423.13z" fill="#fff"/></symbol><symbol id="rss" viewbox="0 0 24 24"><title>Shape 750</title><path d="M3.292 17.42a3.289 3.289 0 1 1 0 6.58 3.295 3.295 0 0 1-3.291-3.29c0-1.82 1.473-3.29 3.291-3.29zM15.907 24h-4.662c0-6.21-5.034-11.25-11.244-11.25V8.09c8.785 0 15.906 7.12 15.906 15.91zm3.291 0c0-10.61-8.595-19.2-19.197-19.2V0c13.253 0 23.997 10.74 23.997 24z" fill="#fff"/></symbol><symbol id="sarrow-left" viewbox="0 0 70 30.2"><style>.st0{fill:#0f8241}</style><path class="st0" d="M15 3.7l2.8 2.8-6.6 6.6h55.2v4H11.2l6.6 6.6-2.8 2.8L3.6 15.1z"/></symbol><symbol id="sarrow-right" viewbox="0 0 70 30.2"><style>.st0{fill:#0f8241}</style><path class="st0" d="M55 3.7l-2.8 2.8 6.6 6.6H3.6v4h55.2l-6.6 6.6 2.8 2.8 11.4-11.4z"/></symbol><symbol id="tea-cup" viewbox="0 0 512 512"><path d="M415.701 78.102c-5.217 0-10.313.524-15.245 1.505l-3.468 37.456a43.123 43.123 0 0 1 18.714-4.249c23.924 0 43.39 19.466 43.39 43.39v78.102c0 23.924-19.466 43.39-43.39 43.39-12.791 0-24.305-5.568-32.253-14.403l-3.732 40.297a77.592 77.592 0 0 0 35.984 8.818c43.063 0 78.102-35.034 78.102-78.102v-78.102c0-43.068-35.039-78.102-78.102-78.102z" fill="#87b45f"/><g class="foo" fill="#a0c869"><path d="M75.892 498.534c-.027-.118-.065-.232-.09-.351.024.119.063.233.09.351zM76.509 500.599C78.958 507.305 85.37 512 92.794 512c-7.424 0-13.836-4.695-16.285-11.401zM194.894 477.288l2.141 19.273c.976 8.79 8.407 15.439 17.25 15.439h116.457c8.844 0 16.273-6.65 17.25-15.439l2.389-21.501a25.903 25.903 0 0 1-10.483 2.229H194.894v-.001z"/></g><path d="M197.036 496.561l-2.141-19.273H83.639c-1.883 0-3.716-.22-5.491-.603a25.75 25.75 0 0 1-4.992-1.626l2.389 21.501c.061.549.148 1.09.257 1.622.025.119.063.233.09.351.163.708.371 1.395.616 2.065C78.958 507.305 85.37 512 92.794 512h121.492c-8.843 0-16.274-6.65-17.25-15.439z" fill="#87b45f"/><g fill="#b4e173"><path d="M396.987 117.063l3.468-37.456 4.812-51.972c.943-10.174-7.064-18.956-17.281-18.956H138.006v205.586l1.524 16.463 19.712 9.856a8.678 8.678 0 0 1 4.797 7.761v55.384a8.679 8.679 0 0 1-8.678 8.678h-8.269l13.079 141.247c1.24 13.391 12.475 23.634 25.923 23.634h153.802c3.723 0 7.265-.809 10.483-2.229 8.407-3.708 14.543-11.722 15.439-21.405l13.895-150.066 3.732-40.297 13.542-146.228zM62.917 467.017zM18.314 24.017a17.387 17.387 0 0 0-.044 3.618l9.499 102.592L18.27 27.634a17.516 17.516 0 0 1 .044-3.617zM78.148 476.685a25.918 25.918 0 0 1-6.231-2.181c.402.204.824.373 1.239.555a25.75 25.75 0 0 0 4.992 1.626z"/></g><g fill="#a7d16c"><path d="M139.53 230.729l-1.524-16.465v15.702zM138.007 8.678h-.001z"/><path d="M78.148 476.685a26.06 26.06 0 0 0 5.491.603h102.456c-13.448 0-24.683-10.243-25.923-23.634l-13.079-141.247h-43.799a8.679 8.679 0 0 1-8.678-8.678v-55.383a8.675 8.675 0 0 1 4.797-7.761l21.237-10.619V8.678H35.552c-8.981 0-16.248 6.787-17.237 15.339a17.456 17.456 0 0 0-.044 3.618l9.499 102.593 29.947 323.428a25.94 25.94 0 0 0 5.201 13.363 26.115 26.115 0 0 0 8.738 7.339c.089.047.172.102.263.148a25.925 25.925 0 0 0 6.229 2.179z"/></g><path d="M125.447 227.568a8.68 8.68 0 0 1 7.761 0l4.797 2.398V8.678a8.679 8.679 0 0 0-17.356 0v221.288l4.798-2.398z" fill="#e4eaf6"/><path d="M133.208 227.568a8.68 8.68 0 0 0-7.761 0l-4.797 2.398-21.237 10.619a8.678 8.678 0 0 0-4.797 7.761v55.383a8.679 8.679 0 0 0 8.678 8.678h52.068a8.679 8.679 0 0 0 8.678-8.678v-55.383a8.675 8.675 0 0 0-4.797-7.761l-19.712-9.856-1.525-.763-4.798-2.398z" fill="#ffcd64"/></symbol><symbol id="tw" viewbox="0 0 30 24"><title>Shape 748</title><path d="M30 2.84c-1.104.48-2.29.81-3.535.95A6.07 6.07 0 0 0 29.171.44a12.26 12.26 0 0 1-3.908 1.47A6.182 6.182 0 0 0 20.77 0c-3.399 0-6.155 2.71-6.155 6.06 0 .47.055.94.159 1.38A17.61 17.61 0 0 1 2.089 1.11c-.53.89-.834 1.93-.834 3.04 0 2.11 1.087 3.96 2.738 5.05a6.23 6.23 0 0 1-2.787-.76l-.001.07c0 2.94 2.122 5.39 4.937 5.95-.516.13-1.06.21-1.621.21-.397 0-.783-.04-1.158-.11.783 2.41 3.056 4.16 5.749 4.21a12.5 12.5 0 0 1-7.644 2.59c-.497 0-.987-.03-1.468-.08A17.613 17.613 0 0 0 9.435 24c11.321 0 17.512-9.23 17.512-17.24 0-.26-.006-.52-.018-.78A12.583 12.583 0 0 0 30 2.84z" fill="#fff"/></symbol><symbol id="yt" viewbox="0 0 21 20"><title>Lozenge</title><path d="M1.002 20l19.925-9.98L.999.03z" fill="#fff"/></symbol></svg>